<svg width="24" height="24" fill="none" xmlns="http://www.w3.org/2000/svg"><path d="M23.618.412l-.004-.004-.005-.004a1.335 1.335 0 00-1.4-.278L.835 8.134c-.565.211-.896.741-.824 1.318.072.577.525 1.017 1.126 1.095l10.447 1.35c.02.002.035.017.038.036l1.41 10.009c.08.576.54 1.01 1.142 1.078.055.007.11.01.163.01.537 0 1.013-.307 1.213-.799l8.359-20.478c.191-.47.08-.983-.29-1.341zM1.305 9.345c-.023-.003-.034-.005-.038-.037-.004-.033.006-.036.028-.045l20-7.491-9.355 8.961c-.06-.017-10.635-1.388-10.635-1.388zM14.37 21.789c-.009.021-.012.03-.046.027-.034-.004-.036-.014-.039-.037 0 0-1.431-10.13-1.45-10.188L22.19 2.63l-7.82 19.16z" fill="#fff"/></svg>