<svg width="116" height="32" fill="none" xmlns="http://www.w3.org/2000/svg"><path d="M114.789 27.845c0-1.78-1.262-3.083-3-3.083-1.736 0-2.999 1.303-2.999 3.083 0 1.776 1.263 3.077 2.999 3.077 1.738 0 3-1.303 3-3.077zm-3.789.158v2.013h-.65v-4.44h1.616c.947 0 1.382.414 1.382 1.22 0 .497-.336.89-.768.948v.018c.375.06.513.395.59 1.008.059.397.138 1.086.28 1.247h-.77c-.179-.417-.161-1.007-.299-1.502-.114-.376-.315-.513-.746-.513h-.631v.002l-.004-.001zm.807-.574c.631 0 .812-.336.812-.633 0-.351-.181-.628-.812-.628H111v1.262h.807v-.001zm-3.732.416c0-2.193 1.74-3.675 3.711-3.675 1.976 0 3.714 1.482 3.714 3.675 0 2.188-1.737 3.671-3.714 3.671-1.971 0-3.711-1.483-3.711-3.671zm-12.862 3.031l-4.278-4.798-4.241 4.798H77.77l8.722-9.798-8.722-9.802h9.202l4.322 4.762 4.159-4.762h8.88l-8.678 9.76 8.799 9.84h-9.24zm-34.578 0V0H77.77v6.882h-9.877v4.394h9.877v6.622h-9.877v6.079h9.877v6.9H60.635z" fill="#FF5A00"/><path d="M53.403 0v12.636h-.08c-1.6-1.84-3.6-2.48-5.92-2.48-4.753 0-8.333 3.233-9.59 7.504-1.434-4.707-5.13-7.592-10.61-7.592-4.452 0-7.966 1.997-9.802 5.253v-4.046h-9.2V6.883h10.041V0H0v30.875h8.201V17.898h8.174a12.33 12.33 0 00-.374 3.053c0 6.438 4.92 10.962 11.2 10.962 5.28 0 8.762-2.481 10.602-6.998h-7.029c-.95 1.36-1.672 1.76-3.572 1.76-2.203 0-4.105-1.922-4.105-4.2H37.41C38.029 27.59 42.014 32 47.483 32c2.36 0 4.519-1.16 5.84-3.12h.079v2h7.23V.001h-7.229V0zM23.325 17.99c.457-1.961 1.978-3.243 3.877-3.243 2.09 0 3.534 1.242 3.913 3.244h-7.79zm25.69 8.188c-2.664 0-4.32-2.483-4.32-5.076 0-2.772 1.44-5.435 4.32-5.435 2.988 0 4.178 2.665 4.178 5.435 0 2.626-1.26 5.075-4.178 5.075z" fill="#29007C"/></svg>