<svg width="162" height="40" fill="none" xmlns="http://www.w3.org/2000/svg"><path fill-rule="evenodd" clip-rule="evenodd" d="M.429.298h161.567V40H.429V.298z" fill="#EAEAEA"/><path fill-rule="evenodd" clip-rule="evenodd" d="M63.04 12.76l6.195-3.208-1.94-3.731L61.1 8.955l1.94 3.806zm8.658 15.523V13.208H55.13v4.254h2.985v10.82H55.13v4.255h19.552v-4.254h-2.984zm18.656-16.045v4.03a2.086 2.086 0 00-2.088 2.09v2.687h2.088v3.282h-2.088v1.942c0 1.118.669 2.164 1.715 2.687.15.074.298.148.373.148v4.328c-2.685.075-5.449-.447-8.21-1.493-2.537-.97-4.402-2.76-5.446-5.298-2.091-4.925.148-10.597 5.073-12.613 2.838-1.267 5.748-1.79 8.583-1.79zm-60.298 4.627l7.239-10h15.074v4.253h-2.985v17.165h2.985v4.254H32.742v-4.254h3.06v-11.12L24.608 32.537 13.414 17.163v11.12h3.06v4.254H5.653v-4.254h2.985V11.118H5.653V6.866H22.74l7.315 10zm79.03 11.418H106.1v4.254h20.224v-4.254h-3.06V6.866H106.1v4.252h2.986v17.165zm-18.732-3.956v-3.282h2.164v-2.688c0-1.194-.97-2.088-2.164-2.088v-4.03c3.135.073 6.193.82 9.18 2.313 3.731 1.866 5.745 5.672 5.223 9.776H90.354z" fill="#fff"/><path fill-rule="evenodd" clip-rule="evenodd" d="M90.354 33.432v-4.328c.15.075.224.075.374.149 2.685.821 5.523-.745 6.343-3.433h7.538c-.896 2.612-2.687 4.404-5.074 5.523-3.062 1.418-6.122 2.09-9.181 2.09zm51.641-21.194v4.03c-1.194 0-2.164.896-2.164 2.09v2.687h2.164v3.283h-2.164v1.941c0 1.118.671 2.164 1.715 2.685.151.076.299.15.449.15v4.328c-2.76.075-5.522-.449-8.283-1.493-2.537-.97-4.328-2.76-5.448-5.298-2.09-4.925.224-10.597 5.149-12.612 2.835-1.268 5.671-1.79 8.582-1.79zm0 12.09v-3.283h2.09v-2.687a2.073 2.073 0 00-.611-1.48 2.078 2.078 0 00-1.479-.61v-4.03c3.06.075 6.12.82 9.18 2.314 3.73 1.866 5.746 5.672 5.223 9.776h-14.403zm0 9.104v-4.328c.075.075.149.075.299.149 2.687.821 5.596-.745 6.418-3.433h7.539c-.972 2.612-2.687 4.404-5.15 5.523-3.06 1.418-6.046 2.09-9.106 2.09z" fill="#fff"/></svg>