<svg width="26" height="24" fill="none" xmlns="http://www.w3.org/2000/svg"><path d="M10.875 18.731c-1.257 0-2.28.98-2.28 2.185s1.023 2.186 2.28 2.186c1.258 0 2.281-.98 2.281-2.186 0-1.204-1.023-2.185-2.28-2.185zm0 3.15c-.555 0-1.007-.433-1.007-.965s.452-.965 1.007-.965c.556 0 1.008.433 1.008.965 0 .533-.452.965-1.008.965zm8.001-3.15c-1.257 0-2.28.98-2.28 2.185s1.023 2.186 2.28 2.186c1.258 0 2.281-.98 2.281-2.186 0-1.204-1.023-2.185-2.28-2.185zm0 3.15c-.555 0-1.007-.433-1.007-.965s.452-.965 1.007-.965c.556 0 1.008.433 1.008.965 0 .533-.452.965-1.008.965zm.562-14.655h-9.126a.624.624 0 00-.637.61c0 .337.286.61.637.61h9.126a.624.624 0 00.637-.61.624.624 0 00-.637-.61zm-.497 3.168H10.81a.624.624 0 00-.637.61c0 .337.285.61.637.61h8.132a.624.624 0 00.637-.61.624.624 0 00-.637-.61z" fill="#fff"/><path d="M25.65 4.508a1.29 1.29 0 00-.987-.45H4.827l-.401-1.862a1.234 1.234 0 00-.74-.873L.89.16a.648.648 0 00-.838.317.6.6 0 00.33.803L3.18 2.442l3.08 14.329c.122.564.647.974 1.248.974h15.257a.624.624 0 00.636-.61.624.624 0 00-.636-.61H7.507l-.375-1.743h15.75c.6 0 1.125-.41 1.247-.974l1.781-8.283a1.178 1.178 0 00-.26-1.017zm-2.769 9.053H6.871L5.088 5.28h19.574l-1.782 8.28z" fill="#fff"/></svg>