<svg width="117" height="36" fill="none" xmlns="http://www.w3.org/2000/svg"><path d="M116.468 0v25.703H0V0h116.468z" fill="#FC0"/><path d="M20.482 4.616L16.761 9.67h20.28c1.025 0 1.012.39.51 1.068-.508.69-1.36 1.888-1.878 2.588-.263.355-.739 1.002.837 1.002h8.294s1.336-1.819 2.457-3.34c1.524-2.068.132-6.373-5.318-6.373h-21.46z" fill="#D2002E"/><path d="M15.255 21.086L22.73 10.93h9.275c1.025 0 1.012.39.51 1.069-.508.689-1.374 1.874-1.892 2.574-.263.355-.738 1.003.837 1.003h12.426c-1.034 1.416-4.386 5.51-10.404 5.51H15.255zm42.804-5.51l-4.053 5.51H43.315s4.05-5.51 4.054-5.51h10.69zm16.379-1.247h-26.15l7.15-9.713h10.689l-4.099 5.57h4.77l4.102-5.57h10.686l-7.148 9.713zm-.918 1.248l-4.055 5.509H58.778s4.05-5.51 4.054-5.51H73.52zM0 17.749h15.75l-.86 1.17H0v-1.17zm0-2.172h17.35l-.861 1.168H0v-1.168zm0 4.345h14.151l-.856 1.164H0v-1.164zm116.468-1.003h-15.69l.862-1.17h14.828v1.17zm0 2.167l-17.285.001.857-1.165h16.428v1.164zm-13.23-5.51h13.23v1.17l-14.091.001.861-1.17zm-6.85-10.96l-7.15 9.713H77.914s7.152-9.713 7.156-9.713h11.32zm-19.391 10.96s-.782 1.068-1.16 1.581c-1.343 1.815-.157 3.929 4.224 3.929h17.165l4.055-5.51H76.997z" fill="#D2002E"/><path d="M0 29.88h116.468v.583H0v-.582zm0 2.718h116.468v.582H0v-.582zm0 2.716h116.468v.582H0v-.582z" fill="#FC0"/><path d="M39.11 35.896h3.504l.56-.758h-2.609l1.463-1.982h2.376l.56-.758h-2.376l1.297-1.758h2.608l.56-.759h-3.505l-4.439 6.015zm4.3 0h1.077l3.666-2.55-.036 2.55h1.13l.008-3.145 4.224-2.87h-1.022l-3.362 2.31.037-2.31h-1.076l-.033 2.887-4.612 3.128zm11.426-5.256h.762c.556 0 1.177.276.617 1.034a2.64 2.64 0 01-2.037 1.06h-.887l1.545-2.094zm-4.776 5.256h.897l1.774-2.404h.878a4.42 4.42 0 003.55-1.81c1.011-1.37.262-1.801-1.02-1.801H54.5l-4.439 6.015zm5.162 0h.897l1.971-2.671h.538c.475 0 .771 0 .617.586l-.58 2.085h1.022l.585-2.395c.076-.37.037-.5-.165-.604l.013-.017c.815-.12 1.761-.638 2.302-1.37 1.062-1.44.01-1.629-1.228-1.629h-1.532l-4.44 6.015zm4.776-5.256h.86c.826 0 1.001.345.601.887-.426.578-1.195.94-2.047.94h-.762l1.348-1.827zm.617 5.256h3.505l.56-.758h-2.61l1.463-1.982h2.376l.559-.758h-2.375l1.297-1.758h2.608l.56-.759h-3.505l-4.439 6.015zm12.262-5.903c-.322-.146-.765-.215-1.177-.215-1.13 0-2.428.569-3.216 1.637-1.38 1.87 1.582 1.5.59 2.844-.521.706-1.442.983-1.953.983-.457 0-.868-.173-1.083-.294l-.681.802c.317.13.658.25 1.097.25 1.255 0 2.661-.51 3.609-1.793 1.462-1.982-1.424-1.715-.572-2.87.465-.628 1.183-.8 1.685-.8.467 0 .66.077.99.25l.71-.794zm4.482 0c-.322-.146-.764-.215-1.177-.215-1.13 0-2.428.569-3.216 1.637-1.38 1.87 1.583 1.5.59 2.844-.52.706-1.442.983-1.953.983-.457 0-.868-.173-1.083-.294l-.681.802c.317.13.658.25 1.097.25 1.255 0 2.661-.51 3.609-1.793 1.463-1.982-1.424-1.715-.572-2.87.465-.628 1.184-.8 1.686-.8.466 0 .66.077.99.25l.71-.794z" fill="#D2002E"/></svg>