<svg width="112" height="40" fill="none" xmlns="http://www.w3.org/2000/svg"><path fill-rule="evenodd" clip-rule="evenodd" d="M.27 40V.298h111.632V40H.271z" fill="#EAEAEA"/><path fill-rule="evenodd" clip-rule="evenodd" d="M56.243 38.378c14.898 0 29.97-1.709 43.832-7.45 4.441-1.834 10.355-5.327 10.355-10.78 0-5.464-5.926-8.945-10.355-10.78C86.212 3.628 71.14 1.92 56.243 1.92c-14.86 0-30.132 1.597-43.92 7.448-4.092 1.734-10.58 5.627-10.58 10.78 0 5.141 6.476 9.046 10.58 10.78 13.787 5.853 29.072 7.45 43.92 7.45z" fill="#fff"/><path fill-rule="evenodd" clip-rule="evenodd" d="M71.964 22.059c-.288-.188-.599-.325-.949-.325h-5.178v.849h6.838c.336 0 .649-.138.936-.312v5.177H56.305c.3-.25.574-.561.574-.96V13.323c0-.41-.275-.723-.574-.973H73.61v4.679c-.286-.187-.599-.325-.935-.325h-6.838v.986h5.177c.35 0 .662-.125.95-.324v4.692zm16.53 2.37h-3.829l-.762 2.258a.813.813 0 00-.037.25c0 .187.062.35.15.512h-8.822c.2-.2.337-.411.437-.674l4.704-12.69c.113-.312.212-.648.212-.973 0-.274-.099-.524-.212-.76h14.26c-.111.249-.223.499-.223.773 0 .337.099.661.224.96l5.19 12.69c.1.275.251.474.475.674H89.244a1.54 1.54 0 00.125-.574.86.86 0 00-.05-.312l-.824-2.134zM40.16 21.91v4.566c0 .411.263.71.562.973H30.278c.287-.262.561-.562.561-.974V13.337c0-.423-.274-.711-.561-.986h10.444c-.3.263-.562.562-.562.986v4.542l3.032-4.542a.897.897 0 00.162-.474c0-.175-.087-.35-.162-.512h10.306c-.443.231-.82.57-1.098.986l-3.62 5.253 4.99 7.885c.263.424.625.736 1.074.973H42.842c.087-.124.2-.261.2-.41 0-.2-.1-.4-.2-.563l-2.683-4.567zm-24.293-9.56h10.692c-.299.263-.561.55-.561.973v13.151c0 .412.262.712.561.973H15.867c.287-.261.549-.561.549-.973v-13.15c0-.425-.262-.711-.55-.974z" fill="#EAEAEA"/><path fill-rule="evenodd" clip-rule="evenodd" d="M85.65 21.385h1.71l-.886-2.408-.824 2.408z" fill="#fff"/></svg>