<svg width="49" height="38" fill="none" xmlns="http://www.w3.org/2000/svg"><path d="M47.876 37.48v.098h.091a.095.095 0 00.049-.012.043.043 0 00.018-.038.042.042 0 00-.018-.036.087.087 0 00-.049-.012h-.091zm.092-.069a.17.17 0 01.11.032.106.106 0 01.038.087.099.099 0 01-.031.076.15.15 0 01-.087.036l.122.14h-.094l-.113-.139h-.036v.138h-.079v-.37h.171zm-.024.498a.314.314 0 00.284-.188.317.317 0 000-.242.32.32 0 00-.165-.164.323.323 0 00-.242 0 .312.312 0 00-.1.066.315.315 0 000 .44.312.312 0 00.223.09v-.002zm0-.706a.408.408 0 01.373.244.392.392 0 01-.086.435.399.399 0 01-.287.117.408.408 0 01-.29-.117.412.412 0 01-.085-.44.39.39 0 01.216-.212.406.406 0 01.16-.031l-.001.004zm-37.391-1.427c0-.704.462-1.283 1.216-1.283.72 0 1.207.554 1.207 1.283 0 .73-.486 1.283-1.207 1.283-.754 0-1.216-.578-1.216-1.283zm3.245 0v-2.005h-.872v.489c-.276-.361-.695-.588-1.266-.588-1.123 0-2.004.882-2.004 2.105 0 1.224.88 2.105 2.004 2.105.57 0 .99-.227 1.266-.587v.486h.87v-2.005h.002zm29.447 0c0-.704.462-1.283 1.217-1.283.721 0 1.207.554 1.207 1.283 0 .73-.486 1.283-1.207 1.283-.755 0-1.217-.578-1.217-1.283zm3.246 0v-3.614h-.872v2.098c-.276-.361-.696-.588-1.266-.588-1.123 0-2.005.882-2.005 2.105 0 1.224.881 2.105 2.005 2.105.57 0 .99-.227 1.266-.587v.486h.872v-2.005zm-21.876-1.324c.561 0 .922.352 1.014.972h-2.08c.093-.579.445-.972 1.066-.972zm.017-.782c-1.174 0-1.996.855-1.996 2.105 0 1.274.855 2.105 2.055 2.105.603 0 1.156-.151 1.642-.562l-.427-.646a1.91 1.91 0 01-1.166.42c-.561 0-1.073-.26-1.198-.982h2.975c.01-.109.018-.218.018-.335-.009-1.25-.782-2.105-1.903-2.105zm10.522 2.105c0-.705.461-1.283 1.216-1.283.72 0 1.207.553 1.207 1.283 0 .73-.486 1.283-1.207 1.283-.755 0-1.216-.579-1.216-1.283zm3.244 0V33.77h-.87v.489c-.278-.361-.696-.588-1.267-.588-1.123 0-2.004.882-2.004 2.105 0 1.224.88 2.105 2.005 2.105.57 0 .988-.227 1.265-.587v.486h.872v-2.006zm-8.166 0c0 1.215.847 2.104 2.138 2.104.604 0 1.006-.134 1.441-.477l-.419-.705c-.327.235-.67.36-1.05.36-.695-.008-1.207-.51-1.207-1.282s.512-1.275 1.207-1.283c.379 0 .722.125 1.05.36l.42-.704c-.437-.344-.839-.478-1.442-.478-1.291 0-2.138.889-2.138 2.105zm11.235-2.105c-.502 0-.83.235-1.056.587v-.486h-.864v4.008h.873v-2.247c0-.663.285-1.031.854-1.031a1.41 1.41 0 01.545.1l.269-.82a1.854 1.854 0 00-.621-.11v-.001zm-23.36.42c-.42-.276-.997-.42-1.635-.42-1.015 0-1.669.487-1.669 1.284 0 .653.487 1.056 1.383 1.182l.412.059c.478.067.703.193.703.419 0 .31-.317.487-.913.487-.604 0-1.04-.193-1.333-.42l-.41.68c.478.352 1.082.52 1.735.52 1.158 0 1.829-.545 1.829-1.308 0-.705-.528-1.073-1.4-1.199l-.411-.06c-.378-.048-.68-.124-.68-.393 0-.293.285-.47.763-.47.512 0 1.007.194 1.25.344l.377-.704-.001-.001zm11.245-.419c-.503 0-.83.236-1.056.588v-.488h-.863v4.008h.871v-2.247c0-.663.285-1.031.855-1.031.186-.003.372.031.545.1l.268-.82a1.855 1.855 0 00-.62-.11zm-7.437.1H20.49v-1.215h-.881v1.215h-.813v.797h.813v1.828c0 .93.36 1.484 1.391 1.484.379 0 .814-.117 1.09-.31l-.25-.746c-.261.15-.546.226-.773.226-.435 0-.577-.268-.577-.67v-1.811h1.425v-.798zM8.885 37.78v-2.515c0-.947-.604-1.585-1.577-1.593-.511-.009-1.04.15-1.409.713-.276-.445-.712-.713-1.324-.713-.428 0-.846.126-1.174.595v-.496H2.53v4.008h.879v-2.222c0-.696.386-1.066.982-1.066.578 0 .871.378.871 1.057v2.23h.881v-2.222c0-.695.402-1.065.98-1.065.596 0 .88.377.88 1.057v2.23l.883.002z" fill="#231F20"/><path d="M48.373 24.449v-.586h-.153l-.176.402-.176-.402h-.153v.586h.108v-.442l.166.381h.112l.165-.382v.443h.107zm-.968 0v-.486h.195v-.099h-.5v.1h.196v.485h.108z" fill="#F79410"/><path d="M31.026 26.962H17.82V3.227h13.207v23.735z" fill="#FF5F00"/><path d="M18.656 15.095a15.07 15.07 0 015.765-11.867A15.03 15.03 0 0015.093 0C6.757 0 0 6.758 0 15.095S6.757 30.19 15.093 30.19a15.029 15.029 0 009.328-3.227 15.07 15.07 0 01-5.765-11.868z" fill="#EB001B"/><path d="M48.844 15.095c0 8.337-6.757 15.095-15.093 15.095a15.033 15.033 0 01-9.33-3.227 15.068 15.068 0 005.767-11.868c0-4.815-2.255-9.104-5.766-11.867A15.033 15.033 0 0133.75 0c8.336 0 15.093 6.758 15.093 15.095" fill="#F79E1B"/></svg>