<svg width="38" height="38" fill="none" xmlns="http://www.w3.org/2000/svg"><path d="M37.428 23.596C34.89 33.776 24.58 39.97 14.4 37.431 4.225 34.894-1.97 24.584.57 14.406 3.105 4.226 13.415-1.97 23.59.569c10.18 2.537 16.374 12.848 13.836 23.027z" fill="#F7931A"/><path d="M27.375 16.293c.378-2.528-1.547-3.887-4.179-4.794l.854-3.424-2.085-.52-.832 3.335a86.101 86.101 0 00-1.67-.393l.838-3.357-2.084-.52-.854 3.424a70.303 70.303 0 01-1.331-.313l.002-.01-2.875-.718-.554 2.226s1.546.355 1.514.377c.844.21.997.77.971 1.212l-.972 3.902c.058.015.133.036.216.07l-.22-.055-1.363 5.465c-.103.256-.365.641-.956.495.021.03-1.515-.378-1.515-.378l-1.035 2.387 2.714.676c.504.127.999.259 1.485.384l-.862 3.464 2.082.52.855-3.428a79.7 79.7 0 001.66.432l-.85 3.41 2.084.52.863-3.457c3.554.672 6.228.401 7.352-2.813.907-2.59-.045-4.082-1.915-5.057 1.362-.315 2.388-1.211 2.662-3.062zm-4.763 6.68c-.645 2.588-5.003 1.19-6.417.838l1.145-4.59c1.413.353 5.944 1.052 5.272 3.751zm.644-6.717c-.588 2.355-4.216 1.158-5.393.865l1.038-4.162c1.177.293 4.968.84 4.355 3.297z" fill="#fff"/></svg>