<svg width="40" height="40" fill="none" xmlns="http://www.w3.org/2000/svg"><path fill-rule="evenodd" clip-rule="evenodd" d="M0 0h40v40H0V0z" fill="#fff"/><path fill-rule="evenodd" clip-rule="evenodd" d="M1.76 36.875h-.114c0-.057-.028-.143-.028-.172 0-.028 0-.085-.086-.085H1.36v.257h-.086v-.6h.258c.114 0 .2.028.2.142 0 .086-.029.115-.057.143.029.03.057.058.057.115v.114c0 .03 0 .03.029.03v.056zm-.114-.429c0-.086-.057-.086-.086-.086h-.2v.172h.172c.057 0 .114-.029.114-.086zm.487.114a.642.642 0 00-.659-.63.636.636 0 00-.63.63c0 .372.287.66.63.66a.648.648 0 00.659-.66zm-.086 0c0 .316-.258.544-.573.544a.526.526 0 01-.543-.544c0-.286.229-.543.543-.543.315 0 .573.257.573.543zm35.268-11.565c0 .86-.544 1.26-1.517 1.26h-1.86v-.86h1.86c.172 0 .315-.028.372-.085a.364.364 0 00.115-.258.436.436 0 00-.115-.286c-.057-.057-.172-.086-.343-.086-.887-.029-2.004.029-2.004-1.23 0-.573.372-1.203 1.374-1.203h1.918v.859H35.34c-.172 0-.286 0-.372.057a.41.41 0 00-.143.315c0 .143.086.229.2.286.115.029.23.058.373.058h.515c.544 0 .887.114 1.116.315.172.2.286.458.286.858zm-4.036-.858c-.23-.201-.573-.316-1.117-.316h-.515c-.143 0-.258-.028-.372-.057-.115-.057-.2-.143-.2-.286s.028-.23.143-.315c.086-.057.2-.057.372-.057h1.775v-.86h-1.918c-1.03 0-1.375.63-1.375 1.203 0 1.26 1.117 1.202 2.005 1.231.171 0 .286.029.343.086a.437.437 0 01.115.286c0 .115-.058.2-.115.258-.086.057-.2.086-.372.086h-1.861v.859h1.86c.974 0 1.518-.4 1.518-1.26 0-.4-.114-.658-.286-.858zm-3.665 1.288h-2.26v-.802h2.203v-.801h-2.204v-.745h2.261v-.83h-3.206v4.008h3.206v-.83zm-4.236-2.977c-.315-.172-.687-.201-1.174-.201H22v4.008h.973v-1.46h1.03c.344 0 .545.028.688.171.172.2.172.544.172.802v.487h.944v-.773c0-.372-.028-.544-.143-.745a1.117 1.117 0 00-.486-.343c.257-.086.687-.43.687-1.06 0-.457-.172-.715-.487-.886zm-5.44-.201h-3.062l-1.231 1.317-1.174-1.317h-3.865v4.008h3.808l1.23-1.317 1.175 1.317h1.86V24.91h1.203c.83 0 1.66-.23 1.66-1.346 0-1.088-.859-1.317-1.603-1.317zm4.667 1.66c-.143.058-.286.058-.458.058l-1.174.029v-.917h1.174c.172 0 .344 0 .458.086.115.058.2.172.2.344a.5.5 0 01-.2.4zm-4.666.2h-1.26v-1.03h1.26c.343 0 .572.143.572.487s-.229.544-.572.544zm-3.693.144l1.488-1.574v3.234l-1.488-1.66zm-2.319 1.174h-2.376v-.802h2.118v-.801h-2.118v-.745h2.405l1.059 1.174-1.088 1.174zm20.726-6.07h-1.374l-1.804-3.005v3.006H29.53l-.372-.888h-2.004l-.372.888h-1.117c-.458 0-1.06-.115-1.402-.459-.315-.343-.487-.8-.487-1.517 0-.6.086-1.145.515-1.574.286-.315.801-.458 1.46-.458h.916v.859h-.916c-.344 0-.544.057-.744.229-.172.172-.258.487-.258.916 0 .43.086.744.258.945.142.143.4.2.658.2h.43l1.373-3.149H28.9l1.603 3.779v-3.78h1.489l1.688 2.778v-2.777h.974v4.008zm-11.365-4.007h-.973v4.008h.973v-4.008zm-2.032.172c-.316-.172-.659-.172-1.145-.172h-2.205v4.008h.945v-1.46h1.03c.344 0 .573.028.716.171.172.2.143.545.143.773v.516h.973v-.802c0-.343-.028-.515-.171-.716a1.2 1.2 0 00-.458-.343c.257-.115.687-.43.687-1.06 0-.457-.2-.715-.515-.915zm-4.037 3.006h-2.233v-.802h2.204v-.83h-2.204v-.716h2.233v-.83h-3.206v4.008h3.206v-.83zm-3.922-3.178h-1.574l-1.174 2.72-1.26-2.72H7.744v3.779l-1.632-3.78H4.681l-1.718 4.009h1.03l.373-.888H6.37l.372.888h1.946v-3.15l1.403 3.15h.83l1.403-3.15v3.15h.973v-4.008zm15.516 2.261l-.658-1.574-.659 1.575h1.317zm-8.302-.63c-.143.087-.286.087-.486.087H18.85v-.888h1.174c.171 0 .371 0 .486.058.114.086.172.2.172.372 0 .171-.057.314-.172.372zm-15.802.63l.659-1.574.658 1.575H4.71zM37.086 2.782H2.934V17.21l1.174-2.662h2.49l.344.658v-.659h2.92l.659 1.432.63-1.431h9.303c.43 0 .801.085 1.088.314v-.315h2.547v.315c.43-.229.974-.315 1.604-.315h3.692l.344.659v-.659h2.72l.4.659v-.659h2.662v5.611h-2.69l-.515-.858v.858h-3.35l-.372-.916h-.83l-.372.916h-1.747a3.43 3.43 0 01-1.545-.343v.343h-4.151V18.87c0-.172-.029-.2-.143-.2h-.143v1.488h-8.016v-.716l-.286.716H9.66l-.285-.687v.687H6.14l-.344-.916h-.83l-.372.916h-1.66v16.919h34.151V26.799c-.372.171-.887.257-1.402.257h-2.491v-.343c-.286.229-.802.343-1.288.343H24.06v-1.288c0-.172-.029-.172-.172-.172h-.143v1.46H21.17V25.54c-.43.2-.916.2-1.346.2h-.286v1.317h-3.149l-.744-.859-.83.86H9.747v-5.611H14.9l.745.858.801-.858h3.464c.4 0 1.06.057 1.346.343v-.343h3.091c.315 0 .916.057 1.317.343v-.343h4.666v.343c.258-.23.745-.343 1.174-.343h2.605v.343c.286-.2.687-.343 1.202-.343h1.775V2.78z" fill="#0077A6"/></svg>