<svg width="328" height="40" fill="none" xmlns="http://www.w3.org/2000/svg"><path fill-rule="evenodd" clip-rule="evenodd" d="M91.586 22.769h-9.974c0-4.515 1.883-6.963 5.08-6.963 3.01 0 4.894 2.824 4.894 6.963zm5.643 4.142v-1.129c0-5.835-1.128-9.032-3.199-11.291-1.693-1.882-4.327-2.822-7.34-2.822-3.385 0-6.02 1.129-8.09 3.575-2.07 2.446-3.2 5.646-3.2 10.161 0 8.657 4.515 13.926 12.043 13.926 3.575 0 6.774-1.317 9.409-3.576l-2.07-3.386c-2.07 1.693-4.141 2.635-6.587 2.635-2.446 0-4.328-.942-5.645-2.822-.753-1.129-1.129-3.014-1.129-4.894v-.375H97.23v-.002zm73.766-.755l-.187 6.211c-1.129 1.88-3.01 3.01-5.081 3.01-2.446 0-3.763-1.504-3.763-4.138 0-1.505.376-2.635 1.317-3.577 1.129-1.128 3.012-1.504 6.398-1.504l1.316-.002zm7.528 9.975c-1.88-1.129-2.259-2.26-2.259-5.27v-10.35c0-2.447 0-3.39-.375-4.518-.942-2.823-3.952-4.327-7.903-4.327-2.259 0-4.705.375-6.962 1.504-1.506.753-2.823 1.129-4.141 2.07l2.446 3.952c1.129-.753 1.882-1.128 3.199-1.881 1.693-.753 3.386-1.13 4.704-1.13 1.504 0 2.446.377 3.013 1.13.563.753.752 1.694.752 3.576v1.504h-1.693c-8.657 0-13.174 3.01-13.174 9.22 0 1.883.565 4.331 2.071 5.647 1.506 1.317 3.386 2.068 6.586 2.068 2.258 0 3.951-.562 5.645-1.504.563-.563.752-.942 1.505-1.693.562 1.693 2.072 3.01 3.763 3.573l2.823-3.571zm124.95-13.362h-9.787c0-4.515 1.883-6.963 4.893-6.963 3.203 0 4.894 2.824 4.894 6.963zm5.832 4.142v-1.129c0-5.835-1.127-9.032-3.197-11.291-1.884-1.882-4.515-2.822-7.529-2.822-3.197 0-5.832 1.129-7.902 3.575-2.072 2.446-3.201 5.646-3.201 10.161 0 8.657 4.518 13.926 12.047 13.926 3.387 0 6.586-1.317 9.408-3.576l-2.259-3.386c-1.88 1.693-4.139 2.635-6.398 2.635-2.635 0-4.515-.942-5.643-2.822-.755-1.129-1.129-3.2-1.129-4.894v-.375h15.803v-.002zM70.886 38.578V2.635h-5.647v14.677H52.256V2.635h-5.458v35.943h5.458V21.83H65.24v16.748h5.647zm44.786-26.535c-.564-.189-1.129-.376-2.07-.376-2.824 0-4.894 1.505-6.587 4.14v-.565c0-1.504-.377-2.446-.942-3.575l-5.269 1.318c.753 1.693.942 3.574.942 6.773v18.819h5.645V21.076c.188-1.505.564-2.07 1.506-3.01.941-.942 2.257-1.13 3.387-1.13.753 0 .94.188 1.693.376l1.695-5.269zm35.753 26.535V19.194c0-2.823-.564-4.516-2.07-5.834-1.129-1.128-2.823-1.693-4.705-1.693-2.822 0-6.021 1.505-8.091 3.952a6.827 6.827 0 00-6.209-3.952c-2.446 0-5.081 1.505-6.963 3.386-.187-1.317-.564-2.446-.94-3.199l-5.08 1.318c.753 1.693.94 2.634.94 6.4v19.006h5.269V19.194c2.259-1.882 3.952-2.823 5.645-2.823 2.257 0 2.823 1.317 2.823 4.329v17.877h5.458V19.57c2.071-2.259 4.141-3.2 5.645-3.2 2.071 0 2.822 1.128 2.822 3.763v18.444h5.456zm51.749 0v-19.57c0-4.706-2.822-7.152-6.961-7.152-2.822 0-5.081.942-7.902 3.386 0-1.129-.379-2.257-.942-3.575l-5.081 1.505c.755 1.693.755 3.199.755 6.022v19.384h5.456V19.571c1.88-1.883 4.328-3.2 6.212-3.2 2.068 0 3.01 1.128 3.01 4.705v17.502h5.453zm42.528 0l-3.01-35.943h-7.715l-6.964 26.719-7.15-26.72h-7.902l-3.389 35.944h5.269l2.446-30.11 8.091 30.11h4.331l8.278-29.545 2.259 29.545h5.456zm11.479 0v-26.91l-5.643.941v25.97h5.643zm.942-34.062c0-1.881-1.697-3.763-3.764-3.763-1.883 0-3.763 1.882-3.763 3.763 0 2.258 1.693 3.765 3.763 3.765 2.069-.001 3.764-1.507 3.764-3.765zM272.8 38.578l-1.128-3.387h-.563c-.942 0-1.693-.563-1.693-2.635V7.904c0-3.388 0-5.645-.379-7.528l-5.643 1.317c.375 1.882.562 3.763.562 7.527v23.71c0 3.952 2.073 6.211 5.27 6.211 1.506 0 2.444-.187 3.574-.563zm12.796 0l-1.128-3.387c-.752 0-1.318 0-1.693-.376-.376-.566-.566-1.696-.566-4.331V7.904c0-3.388 0-5.645-.563-7.528l-5.643 1.317c.562 1.882.562 3.763.562 7.527v22.768c0 2.825.563 4.331 1.318 5.273.755 1.317 2.446 1.88 4.139 1.88 1.315 0 2.444-.187 3.574-.563zm42.153-26.535c-.566-.189-1.128-.376-2.072-.376-2.821 0-5.08 1.505-6.773 4.14v-.565c0-1.504-.376-2.446-.942-3.575l-5.081 1.318c.755 1.693.942 3.574.942 6.773v18.819h5.456V21.076c.376-1.505.755-2.07 1.693-3.01.942-.942 2.259-1.13 3.388-1.13.566 0 .942.188 1.693.376l1.696-5.269zM31.556 30.108s-4.514-1.504-10.914-1.504c-6.587 0-11.103 1.504-11.103 1.504V9.597h.376s1.694 18.065 10.727 18.065c8.844 0 10.537-18.065 10.537-18.065h.376v20.511h.001zm8.655-10.35C40.212 8.842 31.369 0 20.642 0 9.729 0 .882 8.844.882 19.758c0 10.916 8.845 19.759 19.76 19.759 10.727 0 19.57-8.843 19.57-19.759z" fill="#EFEFEF"/></svg>