<svg width="167" height="40" fill="none" xmlns="http://www.w3.org/2000/svg"><path fill-rule="evenodd" clip-rule="evenodd" d="M64.688 28.997L62.42 39.544h-5.218l8.622-38.226h6.18l8.112 38.226H74.84l-2.212-10.547h-7.94zm7.316-4.254l-1.758-9.133c-.51-2.609-1.021-6.01-1.417-8.734H68.6c-.396 2.78-.965 6.295-1.474 8.734l-1.815 9.133h6.692zM100.032.298v32.157c0 2.1.114 5.163.226 7.09h-4.593l-.34-3.345h-.17c-.908 1.927-3.007 3.8-5.785 3.8-5.105 0-8.224-5.56-8.224-14.122 0-9.756 4.14-14.35 8.508-14.35 2.21 0 3.969 1.022 4.933 3.12h.114V.298h5.331zM94.7 22.474c0-.51 0-1.133-.057-1.703-.284-2.494-1.702-4.65-3.63-4.65-3.346 0-4.48 4.65-4.48 9.756 0 5.672 1.475 9.641 4.31 9.641 1.192 0 2.779-.624 3.686-3.912.114-.454.17-1.136.17-1.758v-7.374zm18.031 17.525c-5.5 0-9.472-4.708-9.472-14.178 0-10.04 4.707-14.294 9.755-14.294 5.445 0 9.358 4.878 9.358 14.18 0 10.947-5.389 14.292-9.585 14.292h-.056zm.17-4.196c3.288 0 4.027-5.842 4.027-10.038 0-4.142-.738-10.04-4.14-10.04-3.517 0-4.197 5.898-4.197 10.04 0 4.593.794 10.038 4.254 10.038h.056zM125.586.298h5.33v14.803h.114c1.418-2.495 3.346-3.574 5.785-3.574 4.707 0 7.657 5.332 7.657 13.783 0 9.868-4.027 14.689-8.565 14.689-2.722 0-4.254-1.476-5.446-3.915h-.225l-.284 3.46h-4.593c.113-1.87.227-4.99.227-7.09V.299zm5.33 29.49c0 .627.057 1.25.227 1.703.85 3.348 2.496 4.027 3.572 4.027 3.177 0 4.368-4.196 4.368-9.868 0-5.275-1.247-9.528-4.424-9.528-1.759 0-3.177 2.098-3.574 4.083a10.49 10.49 0 00-.17 1.872v7.712h.001zm21.423-2.948c.056 7.09 3.118 8.848 6.351 8.848 1.929 0 3.573-.453 4.764-1.022l.795 3.857c-1.645.851-4.141 1.306-6.58 1.306-6.918 0-10.548-5.218-10.548-13.726 0-9.018 4.139-14.577 9.868-14.577 5.728 0 8.394 5.502 8.394 12.423 0 1.36-.058 2.212-.114 2.948l-12.93-.057zm7.996-3.799c.057-4.878-1.645-7.486-3.742-7.486-2.781 0-4.028 4.027-4.198 7.486h7.94zM27.156 1.42H43.08v38.124L27.156 1.42zm-11.22 0H0v38.124L15.937 1.42zm5.611 14.05l10.147 24.074h-6.65l-3.034-7.667h-7.427l6.964-16.407zm143.383-4.013a1.208 1.208 0 011.204 1.226c0 .692-.534 1.231-1.21 1.231-.67 0-1.215-.538-1.215-1.231a1.23 1.23 0 01.353-.866 1.219 1.219 0 01.862-.36h.006zm-.006.19c-.538 0-.981.464-.981 1.036 0 .583.443 1.04.987 1.04.545.006.98-.457.98-1.035 0-.577-.435-1.041-.98-1.041h-.006zm-.228 1.75h-.218v-1.369c.115-.016.224-.033.388-.033.207 0 .342.045.424.104.083.06.126.153.126.284 0 .18-.12.29-.268.333v.01c.121.022.203.131.229.333.033.213.065.294.088.338h-.229c-.033-.044-.065-.169-.092-.348-.033-.175-.12-.24-.295-.24h-.152v.588h-.001zm0-.758h.158c.179 0 .333-.065.333-.234 0-.12-.088-.24-.333-.24a.988.988 0 00-.158.011v.463zM45.181 1.42a1.21 1.21 0 011.204 1.226c0 .692-.534 1.232-1.21 1.232-.67 0-1.215-.539-1.215-1.232a1.22 1.22 0 011.215-1.226h.006zm-.006.19c-.54 0-.981.464-.981 1.036 0 .584.441 1.041.987 1.041.544.006.981-.457.981-1.035 0-.578-.437-1.042-.981-1.042h-.006zm-.229 1.751h-.218V1.992a2.4 2.4 0 01.388-.032c.207 0 .343.043.424.103.082.06.126.153.126.284 0 .18-.12.289-.268.332v.01c.12.023.202.132.23.335.032.212.065.294.087.338h-.229c-.033-.044-.066-.17-.092-.349-.034-.175-.12-.24-.295-.24h-.153v.588zm0-.758h.158c.18 0 .333-.065.333-.235 0-.12-.087-.24-.333-.24-.07 0-.12.006-.158.012v.463z" fill="#EAEAEA"/></svg>